<svg width="43" height="43" viewBox="0 0 43 43" fill="none" xmlns="http://www.w3.org/2000/svg">
<ellipse cx="21.4888" cy="21.5" rx="21.4888" ry="21.5" fill="white"/>
<path d="M24.6763 13.0033L22.7574 13C20.6017 13 19.2086 14.5455 19.2086 16.9376V18.7531H17.2793C17.1125 18.7531 16.9775 18.8993 16.9775 19.0795V21.71C16.9775 21.8903 17.1127 22.0363 17.2793 22.0363H19.2086V28.6738C19.2086 28.854 19.3436 29 19.5103 29H22.0275C22.1942 29 22.3292 28.8539 22.3292 28.6738V22.0363H24.585C24.7517 22.0363 24.8867 21.8903 24.8867 21.71L24.8876 19.0795C24.8876 18.993 24.8558 18.9101 24.7993 18.8488C24.7428 18.7876 24.6658 18.7531 24.5858 18.7531H22.3292V17.2141C22.3292 16.4744 22.4922 16.0989 23.3834 16.0989L24.676 16.0984C24.8425 16.0984 24.9775 15.9522 24.9775 15.7721V13.3296C24.9775 13.1496 24.8427 13.0037 24.6763 13.0033Z" fill="black"/>
</svg>
