<svg width="43" height="43" viewBox="0 0 43 43" fill="none" xmlns="http://www.w3.org/2000/svg">
<ellipse cx="21.4888" cy="21.5" rx="21.4888" ry="21.5" fill="white"/>
<path d="M30.8827 25.9342C30.8585 25.8839 30.8359 25.8422 30.8149 25.8087C30.4679 25.2063 29.8048 24.4668 28.826 23.5901L28.8053 23.57L28.795 23.5602L28.7845 23.5501H28.774C28.3298 23.1419 28.0485 22.8674 27.9307 22.7268C27.7151 22.4591 27.6668 22.1882 27.7846 21.9136C27.8679 21.7062 28.1805 21.2681 28.7218 20.5988C29.0066 20.244 29.2321 19.9598 29.3986 19.7456C30.5997 18.2063 31.1204 17.2227 30.9606 16.7943L30.8986 16.6942C30.8569 16.634 30.7493 16.5788 30.576 16.5286C30.4022 16.4784 30.1801 16.4701 29.9093 16.5035L26.9104 16.5235C26.8618 16.5069 26.7925 16.5085 26.7021 16.5286C26.6118 16.5487 26.5667 16.5588 26.5667 16.5588L26.5145 16.5839L26.473 16.6141C26.4383 16.6341 26.4001 16.6692 26.3584 16.7194C26.317 16.7694 26.2823 16.8282 26.2546 16.8951C25.9281 17.7048 25.5568 18.4577 25.1402 19.1536C24.8833 19.5686 24.6474 19.9282 24.432 20.2328C24.2169 20.5372 24.0363 20.7615 23.8907 20.9052C23.7448 21.0491 23.6131 21.1644 23.4949 21.2515C23.3768 21.3386 23.2867 21.3754 23.2243 21.362C23.1617 21.3485 23.1028 21.3351 23.0471 21.3218C22.9499 21.2615 22.8718 21.1796 22.8129 21.0758C22.7538 20.9721 22.7139 20.8416 22.6931 20.6843C22.6724 20.5269 22.6601 20.3916 22.6566 20.2778C22.6534 20.1641 22.6549 20.0033 22.6619 19.7959C22.6691 19.5883 22.6724 19.4479 22.6724 19.3743C22.6724 19.1199 22.6775 18.8439 22.6879 18.5461C22.6984 18.2483 22.7069 18.0124 22.714 17.8385C22.721 17.6645 22.7243 17.4804 22.7243 17.2864C22.7243 17.0923 22.7121 16.9401 22.6879 16.8296C22.6639 16.7193 22.6272 16.6122 22.5788 16.5084C22.5301 16.4046 22.4588 16.3244 22.3653 16.2674C22.2716 16.2106 22.1551 16.1654 22.0165 16.1319C21.6485 16.0516 21.18 16.0082 20.6106 16.0014C19.3194 15.9881 18.4898 16.0684 18.1219 16.2424C17.9761 16.316 17.8442 16.4164 17.7262 16.5435C17.6012 16.6908 17.5838 16.7711 17.674 16.7844C18.0906 16.8445 18.3855 16.9884 18.5591 17.2159L18.6216 17.3365C18.6703 17.4235 18.7189 17.5775 18.7675 17.7983C18.816 18.0191 18.8474 18.2633 18.8612 18.5309C18.8958 19.0195 18.8958 19.4377 18.8612 19.7857C18.8264 20.1338 18.7936 20.4047 18.7623 20.5988C18.7309 20.7929 18.6841 20.9502 18.6216 21.0706C18.5591 21.191 18.5175 21.2646 18.4966 21.2914C18.4758 21.3181 18.4584 21.3349 18.4446 21.3415C18.3544 21.3749 18.2606 21.3919 18.1634 21.3919C18.0662 21.3919 17.9482 21.345 17.8094 21.2512C17.6706 21.1575 17.5266 21.0287 17.3773 20.8647C17.228 20.7007 17.0597 20.4715 16.8722 20.1771C16.6848 19.8827 16.4904 19.5347 16.2891 19.1332L16.1225 18.842C16.0184 18.6547 15.8761 18.3819 15.6956 18.024C15.515 17.6659 15.3554 17.3195 15.2166 16.9849C15.1611 16.8443 15.0778 16.7373 14.9667 16.6637L14.9146 16.6335C14.88 16.6068 14.8244 16.5784 14.7481 16.5482C14.6716 16.518 14.5919 16.4963 14.5085 16.483L11.6553 16.503C11.3638 16.503 11.166 16.5666 11.0618 16.6938L11.0201 16.754C10.9993 16.7875 10.9888 16.841 10.9888 16.9147C10.9888 16.9883 11.0096 17.0786 11.0513 17.1856C11.4678 18.1293 11.9207 19.0394 12.4101 19.916C12.8995 20.7927 13.3248 21.4989 13.6857 22.0339C14.0467 22.5694 14.4146 23.0747 14.7895 23.5497C15.1644 24.0249 15.4125 24.3294 15.534 24.4632C15.6555 24.5972 15.751 24.6974 15.8204 24.7643L16.0808 25.0052C16.2474 25.1658 16.4921 25.3582 16.8149 25.5824C17.1378 25.8067 17.4952 26.0274 17.8875 26.2451C18.2798 26.4624 18.7361 26.6398 19.2569 26.7769C19.7775 26.9142 20.2842 26.9693 20.7772 26.9427H21.9747C22.2176 26.9225 22.4016 26.8489 22.5266 26.7218L22.5681 26.6715C22.5959 26.6316 22.622 26.5695 22.6461 26.486C22.6705 26.4024 22.6826 26.3102 22.6826 26.21C22.6755 25.9223 22.6982 25.663 22.7501 25.4321C22.802 25.2014 22.8612 25.0273 22.9273 24.9102C22.9935 24.7931 23.0681 24.6943 23.1511 24.6142C23.2344 24.5339 23.2937 24.4853 23.3285 24.4686C23.363 24.4517 23.3906 24.4403 23.4115 24.4334C23.5781 24.3799 23.7741 24.4318 24 24.5892C24.2256 24.7464 24.4373 24.9406 24.6353 25.1714C24.8331 25.4024 25.0709 25.6615 25.3485 25.9493C25.6263 26.2371 25.8692 26.451 26.0774 26.5918L26.2856 26.7122C26.4246 26.7926 26.6051 26.8662 26.8273 26.9331C27.0491 27 27.2434 27.0167 27.4103 26.9833L30.0759 26.9432C30.3396 26.9432 30.5447 26.9011 30.6903 26.8176C30.8361 26.734 30.9227 26.6418 30.9506 26.5416C30.9785 26.4412 30.98 26.3274 30.9559 26.2001C30.9312 26.0732 30.9069 25.9844 30.8827 25.9342Z" fill="black"/>
</svg>
